<?xml version="1.0" encoding="utf-8"?>
<!-- Generator: Adobe Illustrator 24.2.0, SVG Export Plug-In . SVG Version: 6.00 Build 0)  -->
<svg version="1.1" id="Layer_1" xmlns="http://www.w3.org/2000/svg" xmlns:xlink="http://www.w3.org/1999/xlink" x="0px" y="0px"
	 viewBox="0 0 251.5 97.9" style="enable-background:new 0 0 251.5 97.9;" xml:space="preserve">
<style type="text/css">
	.st0{fill:#2E2B2B;}
</style>
<g>
	<path class="st0" d="M84,6.3l-16,16L28.6,12.1l-5.8,5.8l32,17.5l-16,16l-16-4l-2.7,2.7l22.7,14.7l20.7-20.7l17.5,32l5.8-5.8
		L76.7,31l16-16c2.4-2.4,2.4-6.3,0-8.7C90.3,3.9,86.4,3.9,84,6.3z"/>
	<polygon class="st0" points="28.6,12.1 22.8,17.9 54.8,35.4 67.9,22.3 	"/>
	<g>
		<rect x="2.2" y="27.2" transform="matrix(0.7071 -0.7071 0.7071 0.7071 -15.797 17.3295)" class="st0" width="21.7" height="1"/>
		
			<rect x="10.6" y="28.3" transform="matrix(0.7071 -0.7071 0.7071 0.7071 -14.7206 22.1069)" class="st0" width="17.4" height="1"/>
		
			<rect x="20.7" y="28.7" transform="matrix(0.7071 -0.7071 0.7071 0.7071 -12.9817 27.1589)" class="st0" width="11.2" height="1"/>
		<rect x="28.3" y="30.2" transform="matrix(0.7071 -0.7071 0.7071 0.7071 -12.2766 31.7811)" class="st0" width="7.9" height="1"/>
		<rect x="35" y="32" transform="matrix(0.7071 -0.7071 0.7071 0.7071 -11.8917 36.2719)" class="st0" width="5.6" height="1"/>
		<rect x="41.4" y="33.6" transform="matrix(0.7071 -0.7071 0.7071 0.7071 -11.4986 40.4194)" class="st0" width="3.3" height="1"/>
		<rect x="46.4" y="35.6" transform="matrix(0.7071 -0.7071 0.7071 0.7071 -11.6238 44.1959)" class="st0" width="2.3" height="1"/>
	</g>
	<g>
		
			<rect x="60.4" y="85.4" transform="matrix(0.7071 -0.7071 0.7071 0.7071 -39.9145 75.5476)" class="st0" width="21.7" height="1"/>
		<rect x="61.5" y="79.1" transform="matrix(0.7071 -0.7071 0.7071 0.7071 -35.775 72.9303)" class="st0" width="17.4" height="1"/>
		
			<rect x="64.1" y="72.2" transform="matrix(0.7071 -0.7071 0.7071 0.7071 -30.9724 70.5877)" class="st0" width="11.2" height="1"/>
		<rect x="64.3" y="66.2" transform="matrix(0.7071 -0.7071 0.7071 0.7071 -27.2063 67.8164)" class="st0" width="7.9" height="1"/>
		<rect x="63.7" y="60.6" transform="matrix(0.7071 -0.7071 0.7071 0.7071 -23.7544 64.911)" class="st0" width="5.6" height="1"/>
		<rect x="63.2" y="55.4" transform="matrix(0.7071 -0.7071 0.7071 0.7071 -20.5466 62.2575)" class="st0" width="3.3" height="1"/>
		<rect x="61.7" y="50.9" transform="matrix(0.7071 -0.7071 0.7071 0.7071 -17.9647 59.5014)" class="st0" width="2.3" height="1"/>
	</g>
	<g>
		<path class="st0" d="M85.9,10.5c-0.2-0.2-0.5-0.2-0.7,0l-1.3,1.3c-0.2,0.2-0.2,0.5,0,0.7c0.1,0.1,0.2,0.1,0.4,0.1s0.3,0,0.4-0.1
			l1.3-1.3C86.1,11,86.1,10.7,85.9,10.5z"/>
		<path class="st0" d="M54.8,40.8l-2.6,2.6c-0.2,0.2-0.2,0.5,0,0.7c0.1,0.1,0.2,0.1,0.4,0.1s0.3,0,0.4-0.1l2.6-2.6
			c0.2-0.2,0.2-0.5,0-0.7C55.3,40.6,55,40.6,54.8,40.8z"/>
		<path class="st0" d="M65.4,30.2l-2.6,2.6c-0.2,0.2-0.2,0.5,0,0.7c0.1,0.1,0.2,0.1,0.4,0.1s0.3,0,0.4-0.1l2.6-2.6
			c0.2-0.2,0.2-0.5,0-0.7C65.9,30,65.6,30,65.4,30.2z"/>
		<path class="st0" d="M70.7,24.9L68,27.6c-0.2,0.2-0.2,0.5,0,0.7c0.1,0.1,0.2,0.1,0.4,0.1s0.3,0,0.4-0.1l2.6-2.6
			c0.2-0.2,0.2-0.5,0-0.7C71.2,24.7,70.9,24.7,70.7,24.9z"/>
		<path class="st0" d="M81.3,14.4L78.6,17c-0.2,0.2-0.2,0.5,0,0.7c0.1,0.1,0.2,0.1,0.4,0.1s0.3,0,0.4-0.1l2.6-2.6
			c0.2-0.2,0.2-0.5,0-0.7C81.8,14.2,81.5,14.2,81.3,14.4z"/>
		<path class="st0" d="M76,19.6l-2.6,2.6c-0.2,0.2-0.2,0.5,0,0.7c0.1,0.1,0.2,0.1,0.4,0.1s0.3,0,0.4-0.1l2.6-2.6
			c0.2-0.2,0.2-0.5,0-0.7C76.5,19.4,76.2,19.4,76,19.6z"/>
		<path class="st0" d="M60.1,35.5l-2.6,2.6c-0.2,0.2-0.2,0.5,0,0.7c0.1,0.1,0.2,0.1,0.4,0.1s0.3,0,0.4-0.1l2.6-2.6
			c0.2-0.2,0.2-0.5,0-0.7C60.6,35.3,60.3,35.3,60.1,35.5z"/>
		<path class="st0" d="M49.5,46.1l-2.6,2.6c-0.2,0.2-0.2,0.5,0,0.7c0.1,0.1,0.2,0.1,0.4,0.1s0.3,0,0.4-0.1l2.6-2.6
			c0.2-0.2,0.2-0.5,0-0.7C50.1,45.9,49.7,45.9,49.5,46.1z"/>
		<path class="st0" d="M44.2,51.4L43,52.6c-0.2,0.2-0.2,0.5,0,0.7c0.1,0.1,0.2,0.1,0.4,0.1c0.1,0,0.3,0,0.4-0.1l1.3-1.3
			c0.2-0.2,0.2-0.5,0-0.7S44.4,51.2,44.2,51.4z"/>
	</g>
	<path class="st0" d="M95,10.6c0-1.8-0.7-3.5-2-4.7c-2.6-2.6-6.8-2.6-9.4,0L67.8,21.7l-39-10.1c-0.2,0-0.4,0-0.5,0.1l-5.8,5.8
		c-0.1,0.1-0.2,0.3-0.1,0.4c0,0.2,0.1,0.3,0.3,0.4L54,35.5L38.7,50.9L23,47c-0.2,0-0.4,0-0.5,0.1l-2.7,2.7c-0.1,0.1-0.2,0.3-0.1,0.4
		c0,0.2,0.1,0.3,0.2,0.4l22.7,14.7c0.2,0.1,0.5,0.1,0.6-0.1L63.5,45l17.1,31.4c0.1,0.1,0.2,0.2,0.4,0.3c0,0,0,0,0.1,0
		c0.1,0,0.3-0.1,0.4-0.1l5.8-5.8c0.1-0.1,0.2-0.3,0.1-0.5l-10.1-39L93,15.4C94.3,14.1,95,12.4,95,10.6z M28.8,12.7L67,22.6
		L54.8,34.8l-31.1-17L28.8,12.7z M76.9,30.1l-1-3.2l-1,0.3l1.2,4.1l0,0l10.1,39l-5.1,5.1L64,43.9c-0.1-0.1-0.2-0.2-0.4-0.3
		c0,0,0,0-0.1,0c-0.1,0-0.3,0.1-0.4,0.1L42.8,64.2L21,50.1L23,48l15.7,3.9c0.2,0,0.4,0,0.5-0.1l16-16l13.1-13.1l16-16
		c2.2-2.2,5.8-2.2,8,0c1.1,1.1,1.7,2.5,1.7,4s-0.6,2.9-1.7,4L76.9,30.1z"/>
</g>
<g>
	<path class="st0" d="M110,8.1c0-2,1.3-3.1,3-3.1s3,1.1,3,3.1v8.5h12.6V8.1c0-2,1.3-3.1,3-3.1s3,1.1,3,3.1v22.7c0,2-1.3,3.1-3,3.1
		s-3-1.1-3-3.1v-8.7H116v8.7c0,2-1.3,3.1-3,3.1s-3-1.1-3-3.1V8.1z"/>
	<path class="st0" d="M145.2,34.2c-4.6,0-8-2.4-8-6.9c0-6.6,7.8-7.5,13.1-7.5v-1.6c0-1.1-0.9-1.5-2.5-1.5c-3.4,0-4,2-5.5,2
		c-1.8,0-2.5-1.3-2.5-2.4c0-2.3,4.6-4.3,8-4.3c5.3,0,8.3,2.3,8.3,6.4v12.5c0,1.7-1.1,3.1-2.8,3.1c-1.2,0-2.3-0.3-2.7-2.1
		C149.6,33.4,147.1,34.2,145.2,34.2z M146.3,29.4c3,0,4.4-1.6,4.4-4.3v-0.9c-3.5,0-7.8-0.4-7.8,3.2
		C142.8,28.9,144.5,29.4,146.3,29.4z"/>
	<path class="st0" d="M159.2,15.4c0-1.9,1.2-3.2,2.9-3.2c1.6,0,2.5,0.9,2.9,2.4c1.1-1.8,3.3-2.6,5.5-2.6c6.2,0,9.3,5.8,9.3,11.4
		c0,5.4-3.7,10.8-9.5,10.8c-1.8,0-3.8-0.7-5.3-2v7c0,1.9-1.2,3.2-2.9,3.2s-2.9-1.3-2.9-3.2V15.4z M169.5,28.9c3,0,4.5-3.1,4.5-5.8
		c0-2.7-1.5-5.9-4.5-5.9c-3.1,0-4.5,2.9-4.5,5.7C165,25.7,166.3,28.9,169.5,28.9z"/>
	<path class="st0" d="M182.2,15.4c0-1.9,1.2-3.2,2.9-3.2c1.6,0,2.5,0.9,2.9,2.4c1.1-1.8,3.3-2.6,5.5-2.6c6.2,0,9.3,5.8,9.3,11.4
		c0,5.4-3.7,10.8-9.5,10.8c-1.8,0-3.8-0.7-5.3-2v7c0,1.9-1.2,3.2-2.9,3.2s-2.9-1.3-2.9-3.2V15.4z M192.5,28.9c3,0,4.5-3.1,4.5-5.8
		c0-2.7-1.5-5.9-4.5-5.9c-3.1,0-4.5,2.9-4.5,5.7C187.9,25.7,189.3,28.9,192.5,28.9z"/>
	<path class="st0" d="M203.7,16.2c-0.2-0.4-0.3-0.9-0.3-1.5c0-1.4,1.5-2.5,2.7-2.5c1.4,0,2.4,0.8,2.9,2l4,10.8l4.2-10.8
		c0.5-1.3,1.5-2,2.9-2c1.2,0,2.7,1,2.7,2.5c0,0.6-0.1,1-0.3,1.5l-9.6,24c-0.5,1.2-1.4,2.3-2.7,2.3c-2,0-3-1.2-3-2.5
		c0-0.6,0.2-1.2,0.4-1.7l2.5-6.2L203.7,16.2z"/>
	<path class="st0" d="M122.9,67.7c0,6.7-4.3,8.5-7.9,8.5c-2.8,0-7.4-1.1-7.4-4.6c0-1.1,0.9-2.4,2.2-2.4c1.6,0,3,1.5,4.8,1.5
		c2.2,0,2.2-2.1,2.2-3.4V50.1c0-2,1.3-3.1,3-3.1s3,1.1,3,3.1V67.7z"/>
	<path class="st0" d="M145.9,65.1c0,6-4.1,11.1-10.3,11.1s-10.3-5.1-10.3-11.1c0-5.8,4.2-11.2,10.3-11.2S145.9,59.3,145.9,65.1z
		 M131,65.1c0,2.8,1.4,5.8,4.6,5.8s4.6-3,4.6-5.8c0-2.8-1.4-5.9-4.6-5.9S131,62.4,131,65.1z"/>
	<path class="st0" d="M164.4,76c-1.5,0-2.4-0.8-2.6-2.1c-1.1,1.6-2.8,2.4-5.6,2.4c-4.5,0-7.9-2.9-7.9-7.8v-11c0-1.9,1.2-3.2,2.9-3.2
		s2.9,1.3,2.9,3.2v10c0,2.7,1.7,4,3.8,4c2.4,0,3.7-1.7,3.7-4v-10c0-1.9,1.2-3.2,2.9-3.2s2.9,1.3,2.9,3.2v15.4
		C167.3,74.7,166.1,76,164.4,76z"/>
	<path class="st0" d="M170.5,57.1c0-1.9,1.5-2.9,3-2.9c1.5,0,2.8,0.6,2.8,2.4h0.1c1.1-1.6,2.2-2.4,4-2.4c1.4,0,2.8,1,2.8,3.1
		c0,1.9-1.7,2-3.4,2.8s-3.5,1.6-3.5,3.8v8.8c0,1.9-1.2,3.2-2.9,3.2s-2.9-1.3-2.9-3.2V57.1z"/>
	<path class="st0" d="M184.6,57.4c0-1.9,1.2-3.2,2.9-3.2c1.5,0,2.4,0.8,2.6,2.1c1.1-1.6,2.8-2.4,5.6-2.4c4.5,0,7.9,2.9,7.9,7.8v11
		c0,1.9-1.2,3.2-2.9,3.2s-2.9-1.3-2.9-3.2v-10c0-2.7-1.7-4-3.8-4c-2.4,0-3.7,1.7-3.7,4v10c0,1.9-1.2,3.2-2.9,3.2s-2.9-1.3-2.9-3.2
		V57.4z"/>
	<path class="st0" d="M211.5,67c0.4,2.8,2.8,4.2,5.4,4.2c3,0,5-2.3,6.5-2.3c1.2,0,2.4,1.2,2.4,2.5c0,2.5-5.1,4.9-9.4,4.9
		c-6.5,0-10.8-4.7-10.8-11.1c0-5.8,4.2-11.2,10.3-11.2c6.2,0,10.4,5.7,10.4,10.5c0,1.7-0.8,2.6-2.5,2.6H211.5z M220.5,63.2
		c-0.3-2.5-1.9-4.4-4.6-4.4c-2.6,0-4.3,2-4.6,4.4H220.5z"/>
	<path class="st0" d="M226.9,58.2c-0.2-0.4-0.3-0.9-0.3-1.5c0-1.4,1.5-2.5,2.7-2.5c1.4,0,2.4,0.8,2.9,2l4,10.8l4.2-10.8
		c0.5-1.3,1.5-2,2.9-2c1.2,0,2.7,1,2.7,2.5c0,0.6-0.1,1-0.3,1.5l-9.6,24c-0.5,1.2-1.4,2.3-2.7,2.3c-2,0-3-1.2-3-2.5
		c0-0.6,0.2-1.2,0.4-1.7l2.5-6.2L226.9,58.2z"/>
</g>
</svg>
